<svg width="25" height="24" viewBox="0 0 25 24" fill="none" xmlns="http://www.w3.org/2000/svg">
<path d="M12.5024 5.8467C9.09642 5.8467 6.34913 8.594 6.34913 12C6.34913 15.406 9.09642 18.1533 12.5024 18.1533C15.9084 18.1533 18.6557 15.406 18.6557 12C18.6557 8.594 15.9084 5.8467 12.5024 5.8467ZM12.5024 16.0004C10.3014 16.0004 8.50198 14.2064 8.50198 12C8.50198 9.7936 10.296 7.99955 12.5024 7.99955C14.7088 7.99955 16.5029 9.7936 16.5029 12C16.5029 14.2064 14.7035 16.0004 12.5024 16.0004ZM20.3427 5.595C20.3427 6.39295 19.7 7.03024 18.9074 7.03024C18.1095 7.03024 17.4722 6.38759 17.4722 5.595C17.4722 4.80241 18.1148 4.15977 18.9074 4.15977C19.7 4.15977 20.3427 4.80241 20.3427 5.595ZM24.4181 7.05166C24.327 5.12909 23.8879 3.42608 22.4794 2.02298C21.0763 0.619882 19.3733 0.180743 17.4508 0.0843468C15.4693 -0.0281156 9.53021 -0.0281156 7.54873 0.0843468C5.63151 0.175388 3.92851 0.614526 2.52005 2.01763C1.1116 3.42073 0.677813 5.12373 0.581417 7.0463C0.468955 9.02778 0.468955 14.9669 0.581417 16.9483C0.672458 18.8709 1.1116 20.5739 2.52005 21.977C3.92851 23.3801 5.62616 23.8193 7.54873 23.9157C9.53021 24.0281 15.4693 24.0281 17.4508 23.9157C19.3733 23.8246 21.0763 23.3855 22.4794 21.977C23.8825 20.5739 24.3217 18.8709 24.4181 16.9483C24.5305 14.9669 24.5305 9.03314 24.4181 7.05166ZM21.8582 19.0744C21.4405 20.1241 20.6318 20.9327 19.5768 21.3558C17.997 21.9824 14.2483 21.8378 12.5024 21.8378C10.7566 21.8378 7.00248 21.977 5.42801 21.3558C4.37836 20.9381 3.5697 20.1294 3.14663 19.0744C2.52005 17.4946 2.66465 13.7458 2.66465 12C2.66465 10.2542 2.52541 6.50006 3.14663 4.92558C3.56435 3.87593 4.373 3.06728 5.42801 2.6442C7.00784 2.01763 10.7566 2.16222 12.5024 2.16222C14.2483 2.16222 18.0024 2.02298 19.5768 2.6442C20.6265 3.06192 21.4352 3.87058 21.8582 4.92558C22.4848 6.50541 22.3402 10.2542 22.3402 12C22.3402 13.7458 22.4848 17.4999 21.8582 19.0744Z" fill="#565656"/>
</svg>
