<svg width="14" height="12" viewBox="0 0 14 12" fill="none" xmlns="http://www.w3.org/2000/svg">
<path d="M13.2301 0V11.7402H11.2304V4.15697C11.2304 3.85386 11.2473 3.52639 11.281 3.17456L7.59381 9.84033C7.41943 10.1597 7.15224 10.3194 6.79224 10.3194H6.47162C6.11162 10.3194 5.84442 10.1597 5.67004 9.84033L1.94064 3.1502C1.95752 3.32882 1.97158 3.50474 1.98283 3.67794C1.99408 3.85115 1.99971 4.01083 1.99971 4.15697V11.7402H0V0H1.71283C1.81408 0 1.90127 0.00270649 1.9744 0.00811946C2.04752 0.0135318 2.11221 0.0270636 2.16846 0.0487148C2.23033 0.0703654 2.28377 0.105548 2.32877 0.154263C2.37939 0.202977 2.42721 0.26793 2.47221 0.34912L6.12567 6.86874C6.2213 7.04195 6.30849 7.22057 6.38724 7.4046C6.47161 7.58863 6.55318 7.77808 6.63193 7.97294C6.71068 7.77267 6.79224 7.58051 6.87662 7.39648C6.96099 7.20704 7.051 7.02571 7.14662 6.8525L10.7495 0.34912C10.7945 0.26793 10.8423 0.202977 10.8929 0.154263C10.9435 0.105548 10.997 0.0703654 11.0532 0.0487148C11.1151 0.0270636 11.1826 0.0135318 11.2557 0.00811946C11.3288 0.00270649 11.416 0 11.5173 0H13.2301Z" fill="black"/>
</svg>
