<svg width="31" height="24" viewBox="0 0 31 24" fill="none" xmlns="http://www.w3.org/2000/svg">
<path d="M27.2371 5.98123C27.2559 6.24372 27.2559 6.50626 27.2559 6.76875C27.2559 14.775 21.1622 24 10.0246 24C6.59335 24 3.40587 23.0062 0.724609 21.2813C1.21213 21.3375 1.68083 21.3563 2.18711 21.3563C5.01831 21.3563 7.6246 20.4 9.70586 18.7688C7.04335 18.7125 4.8121 16.9688 4.04333 14.5687C4.41836 14.625 4.79334 14.6625 5.18713 14.6625C5.73086 14.6625 6.27465 14.5874 6.78087 14.4563C4.00588 13.8937 1.92456 11.4562 1.92456 8.51249V8.43752C2.73078 8.88752 3.66836 9.16877 4.66204 9.20622C3.03078 8.1187 1.96207 6.26247 1.96207 4.16246C1.96207 3.03748 2.26202 2.00623 2.78705 1.10622C5.76832 4.78122 10.2496 7.18118 15.2745 7.44372C15.1808 6.99372 15.1245 6.52502 15.1245 6.05626C15.1245 2.71872 17.8246 0 21.1808 0C22.9245 0 24.4995 0.731248 25.6058 1.9125C26.9745 1.65001 28.287 1.14374 29.4496 0.450003C28.9995 1.85628 28.0433 3.03754 26.7871 3.78748C28.0058 3.6563 29.1871 3.31872 30.2745 2.85002C29.4497 4.04997 28.4184 5.11868 27.2371 5.98123Z" fill="white"/>
</svg>
